<?xml version="1.0" encoding="UTF-8"?>
<svg version="1.1" xmlns="http://www.w3.org/2000/svg" width="217" height="46">
<path d="M0 0 C1.27230469 0.65355469 1.27230469 0.65355469 2.5703125 1.3203125 C11.58698555 6.24583838 16.9360843 13.2256576 22 22 C22.3403125 21.3709375 22.680625 20.741875 23.03125 20.09375 C29.76856021 8.19594686 38.62568328 0.33424436 51.94970703 -3.5715332 C65.08024832 -6.31553177 78.45339979 -3.89000812 89.62109375 3.29296875 C99.67982378 10.51080951 106.74993131 21.59333407 108.7890625 33.94140625 C110.87850724 54.33283917 100.57940104 71.16841227 89 87 C88.34 87.99 87.68 88.98 87 90 C82.72603524 90.67295326 78.38309892 90.46282051 74.0625 90.4375 C72.85658203 90.45748047 71.65066406 90.47746094 70.40820312 90.49804688 C69.25384766 90.49740234 68.09949219 90.49675781 66.91015625 90.49609375 C65.84933838 90.49794678 64.78852051 90.4997998 63.69555664 90.50170898 C61 90 61 90 59.16040039 88.36962891 C57.66642896 85.31882168 57.58281053 82.98400224 57.5234375 79.58984375 C57.4925 78.35298828 57.4615625 77.11613281 57.4296875 75.84179688 C57.41164063 74.55337891 57.39359375 73.26496094 57.375 71.9375 C57.3240581 69.38403711 57.26954216 66.83064226 57.2109375 64.27734375 C57.19337402 63.14546631 57.17581055 62.01358887 57.15771484 60.84741211 C57.12115402 57.92466581 57.12115402 57.92466581 56 55 C52.35133622 53.17566811 48.07993877 53.72955274 44.0625 53.6875 C43.14275391 53.65849609 42.22300781 53.62949219 41.27539062 53.59960938 C39.94991211 53.58704102 39.94991211 53.58704102 38.59765625 53.57421875 C37.38348022 53.55234497 37.38348022 53.55234497 36.14477539 53.5300293 C33.8636735 53.8287981 33.8636735 53.8287981 32.27514648 55.71411133 C30.08550768 59.63936275 29.88360014 63.48292912 29.7890625 67.90625 C29.76070313 68.81503906 29.73234375 69.72382813 29.703125 70.66015625 C29.65104713 72.55318675 29.60677404 74.44644809 29.5703125 76.33984375 C29.27326436 85.06563299 29.27326436 85.06563299 26 89 C23.11159832 90.44420084 20.53626179 90.18356389 17.3125 90.24609375 C15.96093075 90.27902078 14.6093684 90.31223261 13.2578125 90.34570312 C11.12472107 90.39319812 8.99165995 90.43765307 6.85839844 90.47680664 C4.8011405 90.51644232 2.74444816 90.56799284 0.6875 90.62109375 C-0.54613281 90.6461499 -1.77976563 90.67120605 -3.05078125 90.69702148 C-6.11953844 90.69877664 -6.11953844 90.69877664 -8 93 C-8.51408226 97.45961243 -8.41680669 101.95164948 -8.4375 106.4375 C-8.47037109 107.69111328 -8.50324219 108.94472656 -8.53710938 110.23632812 C-8.54419922 111.43580078 -8.55128906 112.63527344 -8.55859375 113.87109375 C-8.57204834 114.97380615 -8.58550293 116.07651855 -8.59936523 117.21264648 C-8.26318474 120.16650188 -8.26318474 120.16650188 -5.78100586 121.85546875 C-2.94773485 123.02150988 -0.99027705 123.3932611 2.0546875 123.44140625 C2.99957031 123.46783203 3.94445312 123.49425781 4.91796875 123.52148438 C5.89378906 123.53501953 6.86960937 123.54855469 7.875 123.5625 C23.84966102 123.84966102 23.84966102 123.84966102 28 128 C28.484375 130.86328125 28.484375 130.86328125 28.75 134.3125 C28.84796875 135.44300781 28.9459375 136.57351563 29.046875 137.73828125 C28.99909372 141.06306202 28.52554218 143.07032557 27 146 C24.76026424 147.69910988 23.57105569 148.0400039 20.76953125 147.84375 C17.05370174 146.71170603 14.45071026 144.55453512 11.5 142.125 C10.88761475 141.63104736 10.27522949 141.13709473 9.64428711 140.62817383 C7.75383934 139.09612092 5.87585064 137.54987501 4 136 C3.44715332 135.5477002 2.89430664 135.09540039 2.32470703 134.62939453 C-24.11005644 112.96432931 -59.38346348 83.78801366 -65 48 C-65.79311364 38.3357634 -65.40239895 29.84594182 -61 21 C-60.57589844 20.13761719 -60.15179688 19.27523437 -59.71484375 18.38671875 C-53.70742147 7.35916644 -44.48595631 0.92122617 -32.77734375 -3.109375 C-22.10099707 -5.62665219 -9.6403061 -5.5234494 0 0 Z " fill="#DED3F1" transform="translate(122,139)"/>
<path d="M0 0 C1.27230469 0.65355469 1.27230469 0.65355469 2.5703125 1.3203125 C11.58698555 6.24583838 16.9360843 13.2256576 22 22 C22.3403125 21.3709375 22.680625 20.741875 23.03125 20.09375 C29.76856021 8.19594686 38.62568328 0.33424436 51.94970703 -3.5715332 C65.08024832 -6.31553177 78.45339979 -3.89000812 89.62109375 3.29296875 C99.67982378 10.51080951 106.74993131 21.59333407 108.7890625 33.94140625 C110.87850724 54.33283917 100.57940104 71.16841227 89 87 C88.34 87.99 87.68 88.98 87 90 C83.875 90.1875 83.875 90.1875 81 90 C81.40992188 89.13117188 81.81984375 88.26234375 82.2421875 87.3671875 C82.78101563 86.21476562 83.31984375 85.06234375 83.875 83.875 C84.40867188 82.73804688 84.94234375 81.60109375 85.4921875 80.4296875 C88.08018895 74.5429899 89.36614752 69.63133333 89.3125 63.1875 C89.30404053 62.12692383 89.30404053 62.12692383 89.29541016 61.04492188 C89.07720918 51.63419442 86.42483494 44.89103612 80 38 C71.75352764 30.32102682 62.75887217 27.18055099 51.52734375 27.55859375 C41.56076855 28.8057953 33.64634572 33.58050794 27 41 C25.13205551 43.57390473 23.48722302 46.18997057 22 49 C20.52767837 47.06971787 19.09510594 45.14784097 17.78125 43.10546875 C12.64440286 35.41585916 4.90611923 30.39910709 -4 28 C-15.51186159 26.81434719 -26.01227069 28.70976828 -35.1484375 36.09765625 C-41.99671947 43.1337603 -46.24212003 51.66204395 -46.4375 61.5 C-46.09550814 79.60656909 -35.16791251 95.41020731 -23 108 C-21.69887308 109.44989918 -20.40650574 110.90772977 -19.125 112.375 C-18.59132812 112.98085937 -18.05765625 113.58671875 -17.5078125 114.2109375 C-15.92621104 116.08755271 -14.45409438 118.0234765 -13 120 C-16.49396754 118.50145302 -18.76693254 116.49072725 -21.44921875 113.81640625 C-22.29307129 112.97682373 -23.13692383 112.13724121 -24.00634766 111.2722168 C-24.89112793 110.37801025 -25.7759082 109.48380371 -26.6875 108.5625 C-27.59290527 107.64960205 -28.49831055 106.7367041 -29.43115234 105.79614258 C-47.46315688 87.47203589 -65.62408372 64.8826884 -65.421875 37.91625977 C-65.19502264 31.65319453 -63.77541675 26.57677198 -61 21 C-60.57589844 20.13761719 -60.15179688 19.27523437 -59.71484375 18.38671875 C-53.70742147 7.35916644 -44.48595631 0.92122617 -32.77734375 -3.109375 C-22.10099707 -5.62665219 -9.6403061 -5.5234494 0 0 Z " fill="#7D61BC" transform="translate(122,139)"/>
<path d="M0 0 C2.1640625 1.60546875 2.1640625 1.60546875 4 4 C4.390625 7.234375 4.390625 7.234375 4.25 10.75 C4.21390625 11.92046875 4.1778125 13.0909375 4.140625 14.296875 C4.07101562 15.63492188 4.07101562 15.63492188 4 17 C5.0725 16.814375 6.145 16.62875 7.25 16.4375 C10.40391546 16.0695432 12.09818492 15.95534657 15 17 C15.33 16.01 15.66 15.02 16 14 C15.05125 13.71125 14.1025 13.4225 13.125 13.125 C10 12 10 12 8 10 C7.44020356 4.73791349 7.44020356 4.73791349 9.375 2.1875 C12.40667762 -0.02795672 13.95730057 -0.03406135 17.625 0.4375 C18.85089844 0.59025391 18.85089844 0.59025391 20.1015625 0.74609375 C20.72804688 0.82988281 21.35453125 0.91367188 22 1 C21.67 2.65 21.34 4.3 21 6 C19.02 5.67 17.04 5.34 15 5 C15 5.66 15 6.32 15 7 C16.423125 7.6496875 16.423125 7.6496875 17.875 8.3125 C21 10 21 10 23 13 C22.86534606 16.23169457 22.69150302 18.23720801 20.484375 20.671875 C16.812489 22.63483293 13.46919853 22.35991137 9.375 22.25 C8.21097656 22.24226563 8.21097656 22.24226563 7.0234375 22.234375 C1.31004464 22.15502232 1.31004464 22.15502232 -1 21 C-1.66 21.33 -2.32 21.66 -3 22 C-7.05142119 22.25860135 -8.54337669 22.30441554 -12 20 C-13.15575154 17.42178504 -13.03342814 16.14039818 -12.375 13.375 C-11 11 -11 11 -8.625 9.6875 C-6 9 -6 9 -2 9 C-2 7.68 -2 6.36 -2 5 C-4.64 5.66 -7.28 6.32 -10 7 C-10.66 5.68 -11.32 4.36 -12 3 C-7.8349018 0.61994389 -4.8223412 -0.73383453 0 0 Z M-6 14 C-6 14.99 -6 15.98 -6 17 C-4.68 16.67 -3.36 16.34 -2 16 C-2 15.01 -2 14.02 -2 13 C-4.0745356 12.8509288 -4.0745356 12.8509288 -6 14 Z " fill="#7660AF" transform="translate(259,240)"/>
<path d="M0 0 C15 0 15 0 21 3 C25.38163424 7.73690188 26.31274792 11.44722784 26.2109375 17.71875 C25.77338844 22.45076205 24.01995302 25.14330166 20.4375 28.15234375 C16.08263857 30.49308177 12.95613659 30.46122787 8.125 30.25 C5.44375 30.1675 2.7625 30.085 0 30 C0 20.1 0 10.2 0 0 Z M7 5 C7 11.93 7 18.86 7 26 C14.29710784 25.72855384 14.29710784 25.72855384 16.9375 23.625 C19.44808621 19.78527991 19.64850769 15.43579262 19 11 C17.20636089 8.1899654 15.98119065 6.49059532 13 5 C11.02 5 9.04 5 7 5 Z " fill="#7962AF" transform="translate(158,231)"/>
<path d="M0 0 C6.6 0 13.2 0 20 0 C20 1.65 20 3.3 20 5 C15.71 5 11.42 5 7 5 C7 7.31 7 9.62 7 12 C9.97 12 12.94 12 16 12 C16.33 13.65 16.66 15.3 17 17 C13.7 17 10.4 17 7 17 C7 19.97 7 22.94 7 26 C11.29 26 15.58 26 20 26 C20 27.32 20 28.64 20 30 C13.73 30 7.46 30 1 30 C0.67 20.1 0.34 10.2 0 0 Z " fill="#7A5FB9" transform="translate(225,231)"/>
<path d="M0 0 C2.47555146 1.92542891 3.36131106 2.76077355 4.25 5.75 C4.67156214 11.06168294 4.7713641 14.47405788 1.25 18.75 C-2.51305807 21.08180949 -5.33539072 21.02441682 -9.62109375 20.41015625 C-11.75 19.75 -11.75 19.75 -14.3125 17.1875 C-16.1418292 12.81301713 -16.27421054 10.46789486 -15.75 5.75 C-14.48515069 2.8408466 -13.49549933 1.28984434 -10.9375 -0.5625 C-6.88938379 -1.83476509 -3.87012891 -1.75914951 0 0 Z M-6.75 2.75 C-9.07434503 5.07434503 -9.71402572 6.46220579 -10.125 9.75 C-9.71644557 13.01843543 -8.95409407 14.36223142 -6.75 16.75 C-5.43 16.42 -4.11 16.09 -2.75 15.75 C-1.53895374 9.81654648 -1.53895374 9.81654648 -3.0625 4.1875 C-4.63428633 2.53384451 -4.63428633 2.53384451 -6.75 2.75 Z " fill="#7A61B9" transform="translate(200.75,241.25)"/>
<path d="M0 0 C2.62946893 0.87648964 3.67656602 1.53102074 5.25 3.8125 C6.11937375 6.34817344 6.21595212 8.33659051 6 11 C4.26043342 12.73956658 1.8063378 12.37190386 -0.5625 12.5625 C-1.57441406 12.64628906 -2.58632813 12.73007813 -3.62890625 12.81640625 C-4.41136719 12.87699219 -5.19382812 12.93757812 -6 13 C-5.67 13.99 -5.34 14.98 -5 16 C-1.8033 17.37001429 0.69903842 16.8252404 4 16 C4.33 17.32 4.66 18.64 5 20 C1.32751381 22.35039116 -1.71157095 22.51756902 -6 22 C-9.18999609 20.10963195 -11.38427071 18.67519645 -12.69921875 15.09765625 C-13.55745033 10.28971375 -12.77512468 7.11484005 -10 3 C-6.86472092 -0.24339215 -4.4193536 -0.46034933 0 0 Z M-4 4 C-4.66 5.32 -5.32 6.64 -6 8 C-4.02 8 -2.04 8 0 8 C-0.66 6.68 -1.32 5.36 -2 4 C-2.66 4 -3.32 4 -4 4 Z " fill="#7A61BD" transform="translate(296,240)"/>
<path d="M0 0 C0.80824219 0.10183594 1.61648437 0.20367187 2.44921875 0.30859375 C3.06410156 0.39238281 3.67898437 0.47617188 4.3125 0.5625 C3.9825 2.2125 3.6525 3.8625 3.3125 5.5625 C0.6725 5.2325 -1.9675 4.9025 -4.6875 4.5625 C-4.6875 7.8625 -4.6875 11.1625 -4.6875 14.5625 C-1.08267786 16.85505415 -1.08267786 16.85505415 1.5625 16.1875 C2.42875 15.878125 2.42875 15.878125 3.3125 15.5625 C3.9725 16.8825 4.6325 18.2025 5.3125 19.5625 C1.66426961 21.89736745 -1.43160043 21.86649283 -5.6875 21.5625 C-8.87953335 20.67582407 -9.59265294 19.69986471 -11.5 16.9375 C-12.97050509 12.75816975 -12.98144656 9.78302369 -11.6875 5.5625 C-8.42683358 0.45412261 -5.92294629 -0.77255821 0 0 Z " fill="#7561AC" transform="translate(218.6875,240.4375)"/>
<path d="M0 0 C2.5520929 2.5520929 3.29763873 5.01581198 4.625 8.375 C9.93795232 21.13950293 18.39041611 31.07338199 27.49755859 41.29199219 C29.71922027 43.81762512 31.86076744 46.40434491 34 49 C28.35067752 46.57083148 24.47209014 41.84087609 20.1875 37.5625 C19.31029297 36.70978516 18.43308594 35.85707031 17.52929688 34.97851562 C11.65780693 29.13337492 7.21464602 23.11107088 3 16 C2.21706864 14.8481803 1.42696394 13.70115007 0.625 12.5625 C-0.8246563 10.27650352 -1.59226933 8.65024933 -2 6 C-1.34 6 -0.68 6 0 6 C0 4.02 0 2.04 0 0 Z " fill="#8068BB" transform="translate(75,210)"/>
<path d="M0 0 C6.6 0 13.2 0 20 0 C20 1.65 20 3.3 20 5 C19.34 5 18.68 5 18 5 C18 3.68 18 2.36 18 1 C13.05 1.33 8.1 1.66 3 2 C3 10.58 3 19.16 3 28 C3.66 28 4.32 28 5 28 C5.33 24.37 5.66 20.74 6 17 C6.33 17 6.66 17 7 17 C7 19.97 7 22.94 7 26 C11.29 26 15.58 26 20 26 C20 27.32 20 28.64 20 30 C13.73 30 7.46 30 1 30 C0.67 20.1 0.34 10.2 0 0 Z " fill="#7763A9" transform="translate(225,231)"/>
<path d="M0 0 C1.65 0.33 3.3 0.66 5 1 C5.33 1.99 5.66 2.98 6 4 C6.66 4 7.32 4 8 4 C8.33 4.99 8.66 5.98 9 7 C8.01 7.99 7.02 8.98 6 10 C5.34 7.69 4.68 5.38 4 3 C2.68 3 1.36 3 0 3 C-1.38550197 5.77100394 -1.1877467 7.9334706 -1 11 C-0.01 12.485 -0.01 12.485 1 14 C2.32 14 3.64 14 5 14 C5 14.66 5 15.32 5 16 C5.99 16 6.98 16 8 16 C10.59481844 10.48601082 10.37610693 5.84845446 9 0 C11.67555523 2.67555523 12.00799083 4.08390374 12.375 7.9375 C12.22181428 11.67662422 11.42479257 14.05560902 9 17 C5.23694193 19.33180949 2.41460928 19.27441682 -1.87109375 18.66015625 C-4 18 -4 18 -6.5625 15.4375 C-8.32825591 11.21504022 -8.31255801 8.53209112 -8 4 C-7.67 4 -7.34 4 -7 4 C-6.67 6.97 -6.34 9.94 -6 13 C-5.34 13 -4.68 13 -4 13 C-3.96261719 12.39671875 -3.92523438 11.7934375 -3.88671875 11.171875 C-3.23374341 3.23374341 -3.23374341 3.23374341 0 0 Z " fill="#7561A8" transform="translate(193,243)"/>
<path d="M0 0 C1.32 0 2.64 0 4 0 C4.33 0.99 4.66 1.98 5 3 C4.34 3 3.68 3 3 3 C2.67 10.59 2.34 18.18 2 26 C1.01 26.33 0.02 26.66 -1 27 C-1 25.68 -1 24.36 -1 23 C-1.66 22.67 -2.32 22.34 -3 22 C-2.34 22 -1.68 22 -1 22 C-1.00523682 21.40461426 -1.01047363 20.80922852 -1.01586914 20.19580078 C-1.03661999 17.50554453 -1.04965407 14.81530511 -1.0625 12.125 C-1.07506836 10.71927734 -1.07506836 10.71927734 -1.08789062 9.28515625 C-1.09111328 8.38925781 -1.09433594 7.49335938 -1.09765625 6.5703125 C-1.10289307 5.74289551 -1.10812988 4.91547852 -1.11352539 4.06298828 C-1 2 -1 2 0 0 Z " fill="#7E61BD" transform="translate(161,233)"/>
<path d="M0 0 C0.66 0.66 1.32 1.32 2 2 C-0.31 1.67 -2.62 1.34 -5 1 C-5 1.66 -5 2.32 -5 3 C-3.35 3.33 -1.7 3.66 0 4 C0.33 5.65 0.66 7.3 1 9 C-5.0546875 9.1953125 -5.0546875 9.1953125 -7 9 C-7.66 8.34 -8.32 7.68 -9 7 C-10.57312496 10.67062491 -11.14440048 12.44302674 -10.125 16.375 C-9.568125 17.674375 -9.568125 17.674375 -9 19 C-12 17 -12 17 -12.875 13.25 C-13.24665311 9.07079867 -12.37627776 6.52344634 -10 3 C-6.88142714 -0.22610986 -4.40285647 -0.47857136 0 0 Z M-4 4 C-4.66 5.32 -5.32 6.64 -6 8 C-4.02 8 -2.04 8 0 8 C-0.66 6.68 -1.32 5.36 -2 4 C-2.66 4 -3.32 4 -4 4 Z " fill="#7460A8" transform="translate(296,240)"/>
<path d="M0 0 C6.63380282 1.4741784 6.63380282 1.4741784 8.21875 3.75 C9.13337028 6.38410641 9.19820517 8.46820349 9.125 11.25 C9.10695313 12.14203125 9.08890625 13.0340625 9.0703125 13.953125 C9.03550781 14.96632812 9.03550781 14.96632812 9 16 C8.34 16 7.68 16 7 16 C7.33 17.32 7.66 18.64 8 20 C5.525 19.01 5.525 19.01 3 18 C3.92105263 11.28947368 3.92105263 11.28947368 4.75 8.25 C5.26323567 5.95532286 5.26323567 5.95532286 3.75 4.3125 C2.20574542 3.15430906 0.60612185 2.0707479 -1 1 C-0.67 0.67 -0.34 0.34 0 0 Z " fill="#7C63BB" transform="translate(254,241)"/>
<path d="M0 0 C0.37125 0.391875 0.7425 0.78375 1.125 1.1875 C3.04972974 3.11886343 3.04972974 3.11886343 5.625 5 C9.5898441 8.25472277 12.61758326 12.27160581 15.80859375 16.26171875 C18.4627236 19.5781983 21.21832365 22.79037345 24 26 C20.37715514 24.46751742 18.04195332 22.2998626 15.26953125 19.53515625 C14.38458984 18.65279297 13.49964844 17.77042969 12.58789062 16.86132812 C11.67201172 15.93771484 10.75613281 15.01410156 9.8125 14.0625 C8.88501953 13.14275391 7.95753906 12.22300781 7.00195312 11.27539062 C5.6803418 9.94991211 5.6803418 9.94991211 4.33203125 8.59765625 C3.52483643 7.78820557 2.7176416 6.97875488 1.88598633 6.14477539 C0 4 0 4 -1 1 C-0.67 0.67 -0.34 0.34 0 0 Z " fill="#7D6DA9" transform="translate(85,233)"/>
<path d="M0 0 C0 0.66 0 1.32 0 2 C-5.29411765 6 -5.29411765 6 -9 6 C-8.67 6.99 -8.34 7.98 -8 9 C-8.9375 11.1875 -8.9375 11.1875 -10 13 C-10.99 12.67 -11.98 12.34 -13 12 C-16.12474627 13.63473516 -16.12474627 13.63473516 -16.6875 16.125 C-16.790625 16.74375 -16.89375 17.3625 -17 18 C-17.99 18 -18.98 18 -20 18 C-17.59033281 10.77099842 -11.55291031 5.25538842 -5.0625 1.4375 C-2 0 -2 0 0 0 Z " fill="#7862AB" transform="translate(167,139)"/>
<path d="M0 0 C0.33 0 0.66 0 1 0 C1.33 2.31 1.66 4.62 2 7 C1.01 7.495 1.01 7.495 0 8 C2.3836813 12.34170523 4.78119883 16.2064129 8 20 C7.67 20.66 7.34 21.32 7 22 C-7 4.97969543 -7 4.97969543 -7 1 C-3.125 1.875 -3.125 1.875 -2 3 C-1.34 2.01 -0.68 1.02 0 0 Z " fill="#7A60B5" transform="translate(74,210)"/>
<path d="M0 0 C0.721875 0.185625 1.44375 0.37125 2.1875 0.5625 C5.12826973 1.01995307 7.14103058 0.73516357 10 0 C10.33 1.32 10.66 2.64 11 4 C7.35969312 6.3297964 4.24881273 6.3862557 0 6 C-1.9375 4.5 -1.9375 4.5 -3 3 C-1.68 3 -0.36 3 1 3 C0.67 2.01 0.34 1.02 0 0 Z " fill="#7462AC" transform="translate(290,256)"/>
<path d="M0 0 C0.66 0 1.32 0 2 0 C2.25523438 0.97839844 2.25523438 0.97839844 2.515625 1.9765625 C4.01038098 7.36722504 5.60206902 11.54753872 9 16 C4.16733689 13.89510673 0.73496462 10.48899967 -2 6 C-1.4375 2.5 -1.4375 2.5 0 0 Z " fill="#C7BDE1" transform="translate(110,252)"/>
<path d="M0 0 C0.66 0 1.32 0 2 0 C2.12117187 0.63808594 2.24234375 1.27617187 2.3671875 1.93359375 C2.53476563 2.75988281 2.70234375 3.58617187 2.875 4.4375 C3.03742188 5.26121094 3.19984375 6.08492187 3.3671875 6.93359375 C3.57601562 7.61550781 3.78484375 8.29742187 4 9 C4.66 9.33 5.32 9.66 6 10 C6 10.99 6 11.98 6 13 C4.68 12.67 3.36 12.34 2 12 C2 11.34 2 10.68 2 10 C1.01 9.67 0.02 9.34 -1 9 C-1 8.34 -1 7.68 -1 7 C-1.66 7 -2.32 7 -3 7 C-2.38722388 4.03824877 -1.74627478 2.61941217 0 0 Z " fill="#795FBF" transform="translate(209,247)"/>
<path d="M0 0 C7.89496782 0.29792331 15.03359863 3.21311249 20.8125 8.73046875 C22.1875 10.375 22.1875 10.375 24 13 C22.02 12.34 20.04 11.68 18 11 C18 10.01 18 9.02 18 8 C15.525 7.505 15.525 7.505 13 7 C13 6.34 13 5.68 13 5 C12.154375 4.896875 11.30875 4.79375 10.4375 4.6875 C6.58557299 3.9171146 3.55924969 2.63725486 0 1 C0 0.67 0 0.34 0 0 Z " fill="#7A63AB" transform="translate(194,136)"/>
<path d="M0 0 C-0.66 0.556875 -1.32 1.11375 -2 1.6875 C-4.25492211 3.84062308 -4.25492211 3.84062308 -4.25 6.75 C-4.1675 7.4925 -4.085 8.235 -4 9 C-4.99 9.495 -4.99 9.495 -6 10 C-6.66 9.67 -7.32 9.34 -8 9 C-8.75 6.125 -8.75 6.125 -9 3 C-7 0 -7 0 -4.5 -0.75 C-2 -1 -2 -1 0 0 Z " fill="#795FBE" transform="translate(257,251)"/>
<path d="M0 0 C2.375 2 2.375 2 4 4 C3.67 4.99 3.34 5.98 3 7 C2.79375 6.360625 2.5875 5.72125 2.375 5.0625 C1.1213606 2.69804904 1.1213606 2.69804904 -1.875 2.1875 C-4.61800014 2.02291999 -6.43512912 2.11216008 -9 3 C-9 3.66 -9 4.32 -9 5 C-8.34 5.33 -7.68 5.66 -7 6 C-7.99 6.33 -8.98 6.66 -10 7 C-10.66 5.68 -11.32 4.36 -12 3 C-7.8349018 0.61994389 -4.8223412 -0.73383453 0 0 Z " fill="#7664A1" transform="translate(259,240)"/>
<path d="M0 0 C0.66 0.99 1.32 1.98 2 3 C1.525625 3.7425 1.05125 4.485 0.5625 5.25 C-2.09398251 9.92540922 -2.25699571 14.45125345 -2.5625 19.75 C-2.60568359 20.44738281 -2.64886719 21.14476562 -2.69335938 21.86328125 C-2.79889596 23.57531922 -2.8998991 25.28763561 -3 27 C-3.33 27 -3.66 27 -4 27 C-4.44424132 17.16499086 -4.32205334 9.10718381 0 0 Z " fill="#7664A0" transform="translate(61,160)"/>
<path d="M0 0 C2.97 0 5.94 0 9 0 C9 1.32 9 2.64 9 4 C5.7 4 2.4 4 -1 4 C-0.01 3.67 0.98 3.34 2 3 C2 2.34 2 1.68 2 1 C1.34 0.67 0.68 0.34 0 0 Z " fill="#7563A5" transform="translate(236,257)"/>
<path d="M0 0 C0.33 0.66 0.66 1.32 1 2 C1.66 2 2.32 2 3 2 C8.54054054 6.86486486 8.54054054 6.86486486 9 11 C7.68 11 6.36 11 5 11 C4.34 9.02 3.68 7.04 3 5 C2.34 5 1.68 5 1 5 C0.67 3.35 0.34 1.7 0 0 Z " fill="#815EC2" transform="translate(172,231)"/>
<path d="M0 0 C0.99 0.33 1.98 0.66 3 1 C1.51887086 3.82359938 0.01271839 6.51946058 -2 9 C-4.8125 9.5 -4.8125 9.5 -7 9 C-5.625 7.5 -5.625 7.5 -4 6 C-3.34 6 -2.68 6 -2 6 C-1.855625 5.195625 -1.71125 4.39125 -1.5625 3.5625 C-1 1 -1 1 0 0 Z " fill="#D7C9F3" transform="translate(205,220)"/>
<path d="M0 0 C0.99 0.33 1.98 0.66 3 1 C3.38063221 3.3260857 3.71269945 5.66055264 4 8 C3 9 3 9 0.4375 9.0625 C-0.366875 9.041875 -1.17125 9.02125 -2 9 C-1.67 8.01 -1.34 7.02 -1 6 C-0.34 5.67 0.32 5.34 1 5 C1.33 4.01 1.66 3.02 2 2 C1.34 2 0.68 2 0 2 C0 1.34 0 0.68 0 0 Z " fill="#7963AE" transform="translate(298,243)"/>
<path d="M0 0 C1.875 0.6875 1.875 0.6875 4 2 C4.69040574 3.65697379 5.3530635 5.3255761 6 7 C7.5640865 9.11027544 9.25770866 11.0284598 11 13 C10.67 13.66 10.34 14.32 10 15 C8.70069021 13.44384991 7.41085862 11.8797832 6.125 10.3125 C5.40570313 9.44238281 4.68640625 8.57226562 3.9453125 7.67578125 C2.11067624 5.1522354 1.00532771 2.93661514 0 0 Z " fill="#7561A4" transform="translate(71,217)"/>
<path d="M0 0 C2.65664779 0.15180845 4.45217862 0.52011425 6.48046875 2.296875 C7.875 3.875 7.875 3.875 10 7 C9.67 7.99 9.34 8.98 9 10 C8.401875 9.21625 7.80375 8.4325 7.1875 7.625 C5.08914751 4.85425677 5.08914751 4.85425677 2 3 C2 2.34 2 1.68 2 1 C1.34 0.67 0.68 0.34 0 0 Z " fill="#7965A6" transform="translate(173,232)"/>
<path d="M0 0 C0.66 0 1.32 0 2 0 C2 2.64 2 5.28 2 8 C0.02 8 -1.96 8 -4 8 C-2.68 5.36 -1.36 2.72 0 0 Z " fill="#806DB0" transform="translate(207,221)"/>
<path d="M0 0 C1.07765625 0.00902344 2.1553125 0.01804688 3.265625 0.02734375 C4.08546875 0.03894531 4.9053125 0.05054688 5.75 0.0625 C5.75 0.3925 5.75 0.7225 5.75 1.0625 C4.63625 1.18625 3.5225 1.31 2.375 1.4375 C-1.28103677 1.7090813 -1.28103677 1.7090813 -3.25 4.0625 C-3.58 3.7325 -3.91 3.4025 -4.25 3.0625 C-6.24958364 3.02169217 -8.25045254 3.01995644 -10.25 3.0625 C-10.25 2.4025 -10.25 1.7425 -10.25 1.0625 C-6.78777385 -0.00473961 -3.60960734 -0.03923486 0 0 Z " fill="#7962AE" transform="translate(99.25,134.9375)"/>
<path d="M0 0 C1.32 0.33 2.64 0.66 4 1 C1.525 5.455 1.525 5.455 -1 10 C-1.66 9.34 -2.32 8.68 -3 8 C-3 5 -3 5 -1 3 C-0.67 3.33 -0.34 3.66 0 4 C0 3.01 0 2.02 0 1 C0 0.67 0 0.34 0 0 Z " fill="#755FAB" transform="translate(222,201)"/>
<path d="M0 0 C1.5625 1.125 1.5625 1.125 3 3 C2.9375 6.0625 2.9375 6.0625 2 9 C-0.0625 10.375 -0.0625 10.375 -2 11 C-1.67 10.29875 -1.34 9.5975 -1 8.875 C0.09044562 5.73996884 0.15322643 3.29436818 0 0 Z " fill="#7260A7" transform="translate(279,250)"/>
<path d="M0 0 C3 1 3 1 4.25 2.875 C5 5 5 5 4 8 C2 6.25 2 6.25 0 4 C0 2.68 0 1.36 0 0 Z " fill="#7962AE" transform="translate(138,155)"/>
<path d="M0 0 C1.9375 0.3125 1.9375 0.3125 4 1 C4.33 1.99 4.66 2.98 5 4 C4.01 4.99 3.02 5.98 2 7 C1 4 1 4 2 1 C1.34 0.67 0.68 0.34 0 0 Z " fill="#6C56B6" transform="translate(273,253)"/>
<path d="M0 0 C2.475 0.495 2.475 0.495 5 1 C5.66 2.98 6.32 4.96 7 7 C5.83040013 6.02433888 4.66438823 5.044375 3.5 4.0625 C2.8503125 3.51722656 2.200625 2.97195312 1.53125 2.41015625 C1.0259375 1.94480469 0.520625 1.47945312 0 1 C0 0.67 0 0.34 0 0 Z " fill="#816BB1" transform="translate(199,173)"/>
</svg>
